<svg width="80" height="47" viewBox="0 0 80 47" fill="none" xmlns="http://www.w3.org/2000/svg">
<path fill-rule="evenodd" clip-rule="evenodd" d="M28.8578 0H37.3089L37.717 0.355567L37.7392 4.49646C37.7541 8.31882 37.7689 8.63734 37.8876 8.72624C37.9841 8.80031 38.9264 8.81513 42.1465 8.81513C45.4112 8.81513 46.3387 8.83735 46.5242 8.91143C46.6725 8.97069 46.8061 9.10403 46.8655 9.22996C46.9397 9.40034 46.9545 10.3707 46.9174 17.7932L46.5093 18.1488H42.2949C38.6667 18.1488 38.0657 18.1636 37.7541 18.371V26.5935H28.4052V18.371L28.2346 18.2599C28.0936 18.1636 27.6113 18.1488 24.9699 18.1488C23.2708 18.1488 21.861 18.1266 21.8462 18.0969C21.8239 18.0599 22.6475 17.208 23.664 16.1858C24.688 15.1709 25.5857 14.2079 25.6674 14.0598C25.7416 13.9042 25.8083 13.6672 25.8083 13.5412C25.8083 13.4079 25.7416 13.1634 25.6599 13.0005C25.5709 12.8227 24.7844 11.9708 23.6566 10.8522C22.5511 9.7485 21.8314 8.9781 21.8833 8.94847C21.9278 8.91884 23.3376 8.8818 25.0218 8.87439C27.782 8.85217 28.101 8.83735 28.4794 8.5929L28.472 0.333345L28.8578 0ZM20.2807 8.89661L22.0911 10.6893C23.0853 11.6745 23.9979 12.6301 24.1092 12.8153C24.2725 13.0671 24.3244 13.2375 24.3244 13.5042C24.3244 13.6968 24.2799 13.9412 24.2205 14.0598C24.1612 14.1709 23.2337 15.1339 20.2065 18.134L18.8709 18.171C18.0547 18.2006 17.3202 18.2599 16.9789 18.334C16.6747 18.4007 16.1701 18.5414 15.8659 18.6377C15.5617 18.7414 15.0052 18.971 14.6417 19.1488C14.2707 19.3266 13.6771 19.6822 13.3135 19.9415C12.95 20.1933 12.349 20.7267 11.978 21.1119C11.607 21.4971 11.1247 22.0823 10.9096 22.4082C10.6944 22.7341 10.3902 23.2675 10.227 23.5934C10.0711 23.9194 9.84855 24.5046 9.72241 24.8898C9.6037 25.275 9.4553 25.8454 9.40337 26.1491C9.35143 26.4528 9.30691 27.1862 9.30691 27.7788C9.31433 28.601 9.35143 29.0381 9.47756 29.6307C9.5666 30.0603 9.75209 30.69 9.88564 31.0381C10.0192 31.3863 10.2195 31.8382 10.316 32.0382C10.4199 32.2456 10.7092 32.7049 10.9541 33.0753C11.1915 33.4456 11.659 34.0086 11.978 34.342C12.3045 34.6679 12.8461 35.1494 13.1948 35.4013C13.5436 35.6605 14.2262 36.068 14.7159 36.305C15.3169 36.6013 15.8956 36.8161 16.4966 36.9717C17.2386 37.1643 17.5725 37.2087 18.4999 37.2384C19.3235 37.268 19.8058 37.2458 20.3549 37.1569C20.7629 37.0902 21.4455 36.9124 21.8759 36.7717C22.3062 36.6309 22.9369 36.3643 23.2856 36.1791C23.6344 35.9939 24.176 35.6531 24.5025 35.4235C24.8215 35.1938 25.3706 34.7049 25.7267 34.3346C26.0829 33.9642 26.5429 33.416 26.7506 33.1123C26.951 32.8086 27.2626 32.2826 27.4333 31.9493C27.5965 31.6085 27.8265 31.0752 27.9304 30.7641C28.0342 30.4455 28.1901 29.8603 28.2643 29.4677C28.3385 29.0677 28.4052 28.5121 28.4052 27.7047H37.7541L37.7095 28.4677C37.6873 28.8825 37.6205 29.6233 37.5611 30.1122C37.5018 30.6011 37.3979 31.253 37.3386 31.5567C37.2792 31.8604 37.1234 32.4604 37.0047 32.8901C36.8785 33.3197 36.6634 33.9864 36.515 34.3716C36.374 34.7568 36.1069 35.3939 35.9214 35.7791C35.7433 36.1643 35.3649 36.868 35.0904 37.3347C34.8084 37.8013 34.3336 38.5199 34.0294 38.9273C33.7252 39.3347 33.1909 39.9866 32.8496 40.3718C32.5009 40.757 31.8999 41.357 31.5141 41.6978C31.1357 42.0385 30.4976 42.5571 30.1118 42.846C29.7259 43.1349 29.0582 43.5793 28.6278 43.8386C28.1975 44.0979 27.4778 44.4905 27.0326 44.7053C26.58 44.9201 25.8454 45.2312 25.4003 45.3942C24.9476 45.5572 24.1983 45.7942 23.7308 45.9202C23.2634 46.0461 22.462 46.2165 21.9501 46.3054C21.2675 46.4165 20.57 46.4683 19.3161 46.498C17.9954 46.5276 17.3795 46.5128 16.6079 46.4165C16.0588 46.3498 15.2204 46.2091 14.753 46.1054C14.2855 46.0016 13.5287 45.7942 13.0835 45.6535C12.6309 45.5053 11.9186 45.2387 11.4883 45.0609C11.058 44.8831 10.3902 44.5646 10.0044 44.3645C9.61854 44.1571 8.88399 43.7127 8.37203 43.3719C7.86007 43.0312 7.12552 42.4904 6.73969 42.1645C6.35387 41.8459 5.67125 41.2015 5.22607 40.7348C4.78089 40.2681 4.12795 39.5051 3.77923 39.0384C3.42308 38.5718 2.96306 37.9051 2.75531 37.5569C2.54756 37.2087 2.18399 36.542 1.94656 36.0754C1.71655 35.6087 1.41234 34.942 1.27879 34.5938C1.14523 34.2457 0.915221 33.5642 0.766827 33.0753C0.618433 32.5863 0.418101 31.7493 0.321645 31.2233C0.225189 30.6974 0.106473 29.7937 0.0545352 29.2233C0.00259725 28.6232 -0.0122426 27.7195 0.0100165 27.075C0.0396953 26.4676 0.0916342 25.6824 0.136152 25.3342C0.180671 24.9861 0.284547 24.3712 0.366164 23.9638C0.44778 23.5564 0.618434 22.8749 0.737149 22.4452C0.863284 22.0156 1.11555 21.2822 1.29363 20.8156C1.47912 20.3489 1.83526 19.5637 2.08753 19.0748C2.3398 18.5858 2.81467 17.7858 3.14113 17.2969C3.4676 16.808 3.94988 16.1413 4.21699 15.8154C4.47668 15.4894 5.06284 14.8524 5.51544 14.4005C5.96062 13.9561 6.65065 13.3338 7.03648 13.0227C7.4223 12.7116 8.10492 12.2227 8.55752 11.9264C9.0027 11.63 9.89306 11.1337 10.5237 10.8226C11.1544 10.5115 12.1412 10.0967 12.7126 9.90406C13.2839 9.71146 14.1 9.47441 14.5304 9.37811C14.9607 9.27441 15.673 9.14107 16.1256 9.08181C16.5708 9.01514 17.0753 8.95588 17.2386 8.94106C17.4018 8.92625 18.1512 8.91143 20.2807 8.89661ZM70.9943 23.2231C71.8921 23.2453 72.5599 23.2971 72.9235 23.3712C73.2277 23.4379 73.747 23.5786 74.0735 23.6823C74.4 23.786 74.8971 23.986 75.1865 24.1268C75.4684 24.2749 75.9359 24.5416 76.2178 24.7342C76.4998 24.9194 76.9895 25.3268 77.2937 25.6305C77.6053 25.9343 78.0579 26.4824 78.3027 26.8528C78.5476 27.2232 78.8666 27.801 79.0225 28.1492C79.1708 28.4973 79.3786 29.0603 79.4751 29.4085C79.5789 29.7566 79.7125 30.3715 79.7867 30.7789C79.8535 31.1863 79.9425 32.0011 79.9722 32.5938C80.0093 33.2086 80.0093 34.1049 79.9722 34.7049C79.9351 35.2753 79.898 35.7642 79.898 35.8013C79.898 35.8309 76.9598 35.8531 73.3686 35.8531C68.1971 35.8531 66.8393 35.8754 66.8393 35.9494C66.8393 35.9939 66.8838 36.2087 66.9432 36.4087C66.9951 36.6161 67.1213 36.9495 67.2251 37.1495C67.3364 37.3569 67.5293 37.6606 67.6629 37.831C67.8039 38.0014 68.1007 38.2829 68.3232 38.4606C68.5533 38.6384 68.9688 38.8829 69.2507 39.0162C69.5401 39.1495 69.9704 39.3051 70.2153 39.3644C70.4601 39.431 70.8905 39.5125 71.1798 39.557C71.4618 39.594 72.0479 39.631 72.4783 39.631C72.9086 39.631 73.6803 39.5792 74.1997 39.5199C74.7265 39.4607 75.4758 39.3421 75.8691 39.2533C76.2698 39.1718 76.9078 38.994 77.2788 38.8681C77.6572 38.7347 77.9837 38.6458 78.006 38.668C78.0282 38.6903 78.2063 39.6903 78.414 40.8904C78.6144 42.0904 78.785 43.1423 78.785 43.2238C78.7924 43.3275 78.6886 43.4164 78.4363 43.5349C78.2434 43.6164 77.8427 43.7571 77.5608 43.846C77.2714 43.9275 76.7224 44.0608 76.3365 44.1423C75.9507 44.2238 75.2829 44.3423 74.8526 44.4016C74.4222 44.4683 73.5245 44.5571 72.8493 44.609C71.907 44.6757 71.3579 44.6757 70.475 44.609C69.8443 44.5571 69.0059 44.4534 68.62 44.372C68.2342 44.2979 67.611 44.1275 67.2474 43.9942C66.8764 43.8682 66.2457 43.5942 65.8376 43.3867C65.4296 43.1719 64.8434 42.8163 64.5392 42.5867C64.235 42.3645 63.7156 41.8904 63.3891 41.5422C63.0627 41.1867 62.6101 40.6089 62.3875 40.2459C62.1649 39.8903 61.8533 39.2977 61.7049 38.9273C61.5565 38.5569 61.3636 37.9939 61.2819 37.668C61.1929 37.3421 61.0742 36.7939 61.0074 36.4457C60.9481 36.0976 60.8739 35.2679 60.8516 34.5938C60.8219 33.8457 60.8442 33.0382 60.8961 32.5197C60.9481 32.053 61.0445 31.3863 61.1187 31.0381C61.2003 30.69 61.3487 30.1418 61.46 29.8159C61.5713 29.4899 61.8162 28.927 61.9942 28.5566C62.1797 28.1862 62.5062 27.6232 62.7214 27.2973C62.9365 26.9713 63.3595 26.4454 63.6562 26.1194C63.9605 25.8009 64.4873 25.3268 64.836 25.0602C65.1847 24.8009 65.7486 24.4453 66.0973 24.2601C66.4461 24.0823 67.0767 23.8231 67.5071 23.6823C67.9374 23.5416 68.5384 23.386 68.8426 23.3342C69.1468 23.2897 69.451 23.2379 69.5104 23.2231C69.5698 23.2082 70.2375 23.2082 70.9943 23.2231ZM68.9539 28.401C68.5978 28.5714 68.301 28.7936 68.0042 29.1047C67.7668 29.3566 67.4848 29.764 67.3661 30.0233C67.2474 30.2752 67.0767 30.7567 66.9951 31.0974C66.9061 31.4308 66.8393 31.7419 66.8393 31.7789C66.8393 31.8308 68.1378 31.853 70.5863 31.853H74.3332C74.3332 31.4826 74.2738 31.1196 74.1922 30.8159C74.118 30.5122 73.9696 30.0826 73.8583 29.8751C73.7545 29.6603 73.5245 29.327 73.3464 29.1344C73.1757 28.9492 72.8344 28.6603 72.5896 28.5047C72.3076 28.3269 71.9589 28.1788 71.6399 28.1121C71.3653 28.0529 70.9201 28.001 70.6382 28.0084C70.3637 28.0158 69.9927 28.0454 69.8072 28.0825C69.6217 28.1195 69.2359 28.2603 68.9539 28.401ZM49.1062 23.2971C50.7163 23.3119 51.117 23.3416 51.8144 23.4823C52.2596 23.5712 52.8606 23.7268 53.15 23.8305C53.4319 23.9342 53.8697 24.1194 54.1145 24.2379C54.3594 24.3638 54.76 24.6009 55.0049 24.7787C55.2497 24.949 55.6504 25.3046 55.8878 25.5639C56.1327 25.8231 56.4443 26.2232 56.5927 26.4454C56.7337 26.6676 56.9563 27.0824 57.0898 27.3713C57.2234 27.6602 57.4163 28.2084 57.5202 28.5936C57.624 28.9788 57.765 29.6159 57.8392 30.0011C57.9505 30.6233 57.9653 31.453 58.0099 44.0756H52.1483L52.126 37.7273C52.1038 31.9789 52.0889 31.3196 51.9702 30.8159C51.9034 30.5122 51.7328 30.0307 51.6066 29.7492C51.4583 29.4381 51.2505 29.1344 51.0724 28.9788C50.9092 28.8307 50.605 28.6381 50.4047 28.5418C50.1969 28.4529 49.7666 28.3343 49.4401 28.2825C48.9727 28.2158 48.5794 28.2158 47.5852 28.2899C46.8877 28.3418 46.3016 28.3936 46.2645 28.4158C46.2348 28.4306 46.2125 31.9641 46.2125 44.0756H40.351V24.4083L41.3304 24.1712C41.872 24.0379 42.9033 23.8305 43.6156 23.712C44.3279 23.5934 45.2999 23.4601 45.7673 23.4156C46.2348 23.3712 46.7542 23.3193 46.9174 23.3045C47.0806 23.2897 48.0675 23.2823 49.1062 23.2971Z" fill="#00AED4"/>
</svg>
