<svg width="585" height="578" viewBox="0 0 585 578" fill="none" xmlns="http://www.w3.org/2000/svg">
<path opacity="0.05" fill-rule="evenodd" clip-rule="evenodd" d="M359.67 0H465L470.086 4.41864L470.364 55.8775C470.549 103.378 470.734 107.336 472.213 108.441C473.416 109.361 485.16 109.546 525.294 109.546C565.984 109.546 577.543 109.822 579.855 110.742C581.705 111.479 583.369 113.136 584.109 114.701C585.034 116.818 585.219 128.877 584.756 221.116L579.67 225.535H527.144C481.923 225.535 474.433 225.719 470.549 228.297V330.478H354.029V228.297L351.902 226.916C350.145 225.719 344.135 225.535 311.213 225.535C290.036 225.535 272.466 225.259 272.281 224.891C272.003 224.43 282.268 213.844 294.937 201.141C307.699 188.529 318.889 176.562 319.906 174.721C320.831 172.787 321.663 169.842 321.663 168.277C321.663 166.62 320.831 163.582 319.813 161.557C318.704 159.347 308.901 148.761 294.845 134.861C281.066 121.145 272.096 111.571 272.743 111.203C273.298 110.834 290.869 110.374 311.861 110.282C346.261 110.006 350.238 109.822 354.954 106.784L354.862 4.14248L359.67 0ZM252.769 110.558L275.333 132.836C287.724 145.079 299.099 156.954 300.486 159.255C302.52 162.385 303.168 164.503 303.168 167.817C303.168 170.21 302.613 173.248 301.873 174.721C301.133 176.101 289.574 188.069 251.844 225.351L235.198 225.811C225.026 226.179 215.871 226.916 211.617 227.836C207.825 228.665 201.537 230.414 197.745 231.611C193.954 232.899 187.018 235.753 182.487 237.963C177.863 240.172 170.465 244.591 165.934 247.812C161.402 250.942 153.912 257.57 149.288 262.357C144.664 267.144 138.653 274.416 135.972 278.467C133.29 282.517 129.498 289.145 127.464 293.196C125.522 297.246 122.748 304.518 121.176 309.305C119.696 314.092 117.846 321.18 117.199 324.955C116.552 328.729 115.997 337.842 115.997 345.207C116.089 355.425 116.552 360.856 118.124 368.221C119.234 373.56 121.545 381.384 123.21 385.711C124.875 390.038 127.371 395.653 128.574 398.139C129.868 400.716 133.475 406.423 136.527 411.026C139.486 415.629 145.312 422.625 149.288 426.768C153.357 430.818 160.108 436.802 164.454 439.932C168.801 443.153 177.308 448.216 183.412 451.162C190.902 454.844 198.115 457.514 205.606 459.447C214.853 461.841 219.015 462.393 230.574 462.761C240.839 463.129 246.85 462.853 253.693 461.749C258.779 460.92 267.287 458.711 272.651 456.962C278.014 455.213 285.875 451.899 290.221 449.597C294.568 447.296 301.318 443.061 305.387 440.208C309.364 437.354 316.207 431.278 320.646 426.676C325.085 422.073 330.818 415.261 333.407 411.487C335.904 407.712 339.788 401.176 341.915 397.034C343.95 392.799 346.816 386.171 348.111 382.305C349.406 378.347 351.348 371.074 352.272 366.195C353.197 361.224 354.029 354.32 354.029 344.286H470.549L469.994 353.768C469.717 358.923 468.884 368.129 468.144 374.204C467.405 380.28 466.11 388.381 465.37 392.155C464.63 395.929 462.688 403.386 461.209 408.725C459.637 414.064 456.955 422.349 455.105 427.136C453.348 431.923 450.019 439.84 447.707 444.626C445.488 449.413 440.772 458.158 437.35 463.958C433.836 469.757 427.918 478.687 424.126 483.75C420.335 488.813 413.676 496.914 409.422 501.701C405.076 506.487 397.586 513.944 392.777 518.178C388.061 522.413 380.108 528.857 375.299 532.447C370.49 536.037 362.167 541.56 356.804 544.782C351.44 548.004 342.47 552.883 336.921 555.553C331.28 558.222 322.125 562.089 316.577 564.114C310.936 566.139 301.596 569.085 295.77 570.65C289.944 572.215 279.956 574.332 273.576 575.437C265.068 576.818 256.375 577.462 240.747 577.83C224.286 578.198 216.611 578.014 206.993 576.818C200.15 575.989 189.7 574.24 183.874 572.951C178.048 571.662 168.616 569.085 163.067 567.336C157.426 565.495 148.548 562.181 143.185 559.971C137.821 557.762 129.498 553.804 124.69 551.318C119.881 548.741 110.726 543.217 104.345 538.983C97.9642 534.748 88.8091 528.028 84.0003 523.978C79.1916 520.02 70.6838 512.011 65.1353 506.211C59.5867 500.412 51.4489 490.93 47.1025 485.131C42.6637 479.331 36.9302 471.046 34.3409 466.72C31.7515 462.393 27.2202 454.108 24.261 448.309C21.3943 442.509 17.6028 434.224 15.9382 429.898C14.2736 425.571 11.4069 417.102 9.55737 411.026C7.70786 404.951 5.21102 394.548 4.00883 388.012C2.80665 381.477 1.32703 370.246 0.679701 363.158C0.032371 355.701 -0.152586 344.47 0.124841 336.462C0.494744 328.913 1.14209 319.155 1.69694 314.829C2.25179 310.502 3.54646 302.861 4.56369 297.798C5.58092 292.735 7.70787 284.266 9.18748 278.927C10.7596 273.588 13.9037 264.474 16.1232 258.675C18.435 252.875 22.8739 243.118 26.018 237.042C29.1622 230.966 35.0807 221.024 39.1496 214.949C43.2185 208.873 49.2295 200.588 52.5586 196.538C55.7952 192.487 63.1008 184.571 68.7418 178.955C74.2904 173.432 82.8906 165.699 87.6994 161.833C92.5081 157.967 101.016 151.891 106.657 148.209C112.205 144.527 123.302 138.359 131.163 134.493C139.023 130.626 151.323 125.471 158.443 123.078C165.564 120.684 175.736 117.739 181.1 116.542C186.463 115.253 195.341 113.596 200.982 112.86C206.531 112.031 212.819 111.295 214.853 111.111C216.888 110.926 226.228 110.742 252.769 110.558Z" fill="#00AED4"/>
</svg>
